<svg width="29" height="30" viewBox="0 0 29 30" fill="none" xmlns="http://www.w3.org/2000/svg">
<path fill-rule="evenodd" clip-rule="evenodd" d="M24.31 29.0001C21.504 29.0176 18.7184 28.5228 16.09 27.5401C12.9552 26.4119 10.11 24.6017 7.76 22.2401C5.39872 19.8995 3.59121 17.0601 2.47 13.9301C1.25295 10.6621 0.778147 7.16424 1.08 3.69006V3.40006C1.29237 1.88359 2.6798 0.816332 4.2 1.00006C4.3 1.00006 8.12 1.71006 8.5 1.80006C9.86744 2.19325 10.8147 3.4373 10.83 4.86006C10.83 5.75006 11.04 7.60006 11.17 8.86006V9.20006C11.24 9.95006 11.31 10.6101 11.34 11.0601L11.43 12.1201L9.19 13.8901C10.7542 16.8324 13.16 19.2416 16.1 20.8101L17.88 18.5701L18.94 18.6501L21.13 18.8601C22.43 18.9901 24.22 19.1701 25.04 19.2001H25.1C26.4971 19.2324 27.7117 20.1676 28.1 21.5101C28.2 21.9201 28.9 25.7901 28.9 25.8201C29.0824 27.2979 28.0762 28.66 26.61 28.9201H26.25C25.6057 28.9881 24.9577 29.0148 24.31 29.0001ZM3.08 3.71006V3.84006C2.81146 7.02936 3.24848 10.2387 4.36 13.2401C6.45005 19.0191 11.0009 23.57 16.78 25.6601C19.7739 26.7733 22.9779 27.2071 26.16 26.9301H26.41C26.777 26.8198 27.0208 26.4727 27 26.0901L26.24 22.0001C26.0799 21.52 25.6359 21.192 25.13 21.1801H25C24.07 21.1801 22.32 20.9701 20.92 20.8301L18.78 20.6301L16.63 23.3301L15.17 22.5601C11.858 20.8178 9.15226 18.1121 7.41 14.8001L6.64 13.3401L9.34 11.1901C9.34 10.7501 9.24 10.1001 9.17 9.38006V9.05006C9 7.69006 8.9 6.32006 8.82 4.94006C8.83629 4.40676 8.50415 3.92474 8 3.75006C7.73 3.69006 4.18 3.00006 3.91 3.00006C3.49623 3 3.14404 3.30127 3.08 3.71006Z" fill="#656565"/>
</svg>
